HIERARCHY
ROOT root
{
	OFFSET 0.000000 0.000000 0.000000
	CHANNELS 6 Xposition Yposition Zposition Zrotation Yrotation Xrotation
	JOINT lhip
	{
		OFFSET 0.058581 -0.082280 -0.017664
		CHANNELS 3 Zrotation Yrotation Xrotation
		JOINT lknee
		{
			OFFSET 0.043451 -0.386469 0.008037
			CHANNELS 3 Zrotation Yrotation Xrotation
			JOINT lankle
			{
				OFFSET -0.014790 -0.426874 -0.037428
				CHANNELS 3 Zrotation Yrotation Xrotation
				JOINT ltoe
				{
					OFFSET 0.041054 -0.060286 0.122042
					CHANNELS 3 Zrotation Yrotation Xrotation
					End Site
					{
						OFFSET 0.000000 0.000000 0.000000
					}
				}
			}
		}
	}
	JOINT rhip
	{
		OFFSET -0.060310 -0.090513 -0.013543
		CHANNELS 3 Zrotation Yrotation Xrotation
		JOINT rknee
		{
			OFFSET -0.043257 -0.383688 -0.004843
			CHANNELS 3 Zrotation Yrotation Xrotation
			JOINT rankle
			{
				OFFSET 0.019056 -0.420046 -0.034562
				CHANNELS 3 Zrotation Yrotation Xrotation
				JOINT rtoe
				{
					OFFSET -0.034840 -0.062106 0.130323
					CHANNELS 3 Zrotation Yrotation Xrotation
					End Site
					{
						OFFSET 0.000000 0.000000 0.000000
					}
				}
			}
		}
	}
	JOINT lowerback
	{
		OFFSET 0.004439 0.124404 -0.038385
		CHANNELS 3 Zrotation Yrotation Xrotation
		JOINT upperback
		{
			OFFSET 0.004488 0.137956 0.026820
			CHANNELS 3 Zrotation Yrotation Xrotation
			JOINT chest
			{
				OFFSET -0.002265 0.056032 0.002855
				CHANNELS 3 Zrotation Yrotation Xrotation
				JOINT lowerneck
				{
					OFFSET -0.013390 0.211636 -0.033468
					CHANNELS 3 Zrotation Yrotation Xrotation
					JOINT upperneck
					{
						OFFSET 0.010113 0.088937 0.050410
						CHANNELS 3 Zrotation Yrotation Xrotation
						End Site
						{
							OFFSET 0.000000 0.000000 0.000000
						}
					}
				}
				JOINT lclavicle
				{
					OFFSET 0.071702 0.114000 -0.018898
					CHANNELS 3 Zrotation Yrotation Xrotation
					JOINT lshoulder
					{
						OFFSET 0.122921 0.045205 -0.019046
						CHANNELS 3 Zrotation Yrotation Xrotation
						JOINT lelbow
						{
							OFFSET 0.255332 -0.015649 -0.022946
							CHANNELS 3 Zrotation Yrotation Xrotation
							JOINT lwrist
							{
								OFFSET 0.265709 0.012698 -0.007375
								CHANNELS 3 Zrotation Yrotation Xrotation
								End Site
								{
									OFFSET 0.000000 0.000000 0.000000
								}
							}
						}
					}
				}
				JOINT rclavicle
				{
					OFFSET -0.082954 0.112472 -0.023707
					CHANNELS 3 Zrotation Yrotation Xrotation
					JOINT rshoulder
					{
						OFFSET -0.113228 0.046853 -0.008472
						CHANNELS 3 Zrotation Yrotation Xrotation
						JOINT relbow
						{
							OFFSET -0.260127 -0.014369 -0.031269
							CHANNELS 3 Zrotation Yrotation Xrotation
							JOINT rwrist
							{
								OFFSET -0.269108 0.006794 -0.006027
								CHANNELS 3 Zrotation Yrotation Xrotation
								End Site
								{
									OFFSET 0.000000 0.000000 0.000000
								}
							}
						}
					}
				}
			}
		}
	}
}
MOTION
Frames: 7
Frame Time: 0.033333
-0.071572 0.236325 1.011059 89.703430 -1.233645 82.819048 3.182668 2.088520 4.739483 -3.254437 1.522227 7.647424 -1.392725 7.827136 -4.511200 0.000000 -0.000000 0.000000 -3.498432 -4.904855 0.616287 -0.967762 -3.765536 12.234815 5.296378 -4.009388 -5.917842 0.000000 -0.000000 0.000000 1.264982 2.002015 11.002544 -0.372285 -2.953851 3.607366 -2.178484 2.351284 0.375324 0.415079 3.586882 1.105370 0.735371 -3.693556 11.784951 -8.473392 -18.772911 -6.860681 -34.365877 -28.971708 3.818439 130.761761 -67.929165 -100.879804 33.713746 -16.876139 -13.232892 8.260982 23.611102 -5.150701 36.296633 36.448528 4.417054 -105.888576 63.698506 -65.319797 -25.465664 14.137418 28.226867 
-0.073563 0.234492 1.009723 89.866765 -1.237322 82.359088 3.139879 1.929693 4.463356 -3.306539 1.697006 8.884651 -0.881788 7.787438 -4.989842 0.000000 -0.000000 0.000000 -3.524511 -4.874167 0.384905 -0.914931 -3.841616 13.386244 4.827470 -3.975178 -6.510996 0.000000 -0.000000 0.000000 1.159642 2.063341 11.303511 -0.111736 -2.842131 4.764485 -2.174758 2.200355 0.431908 0.375588 3.847898 1.691865 0.466188 -3.799116 11.888920 -11.833731 -17.918791 -5.156126 -37.624209 -27.680276 6.094573 122.930471 -71.993410 -94.206012 30.645010 -15.409692 -12.895591 12.631850 22.645243 -2.575331 39.012856 35.327176 6.928730 -94.895889 66.373149 -55.582975 -22.744363 13.300590 29.344230 
-0.076117 0.232827 1.008203 89.985734 -1.303248 81.963134 3.069055 1.739890 4.123926 -3.406514 1.651523 10.061781 -0.500212 8.038368 -5.503210 0.000000 -0.000000 0.000000 -3.513628 -4.778173 -0.032490 -0.954691 -3.715013 14.646047 4.470813 -4.162755 -7.050136 0.000000 -0.000000 0.000000 1.160620 1.853716 12.353875 -0.187434 -2.677258 4.873087 -2.243766 2.161766 0.333552 0.249352 3.652092 2.619972 0.637670 -3.611884 12.336320 -13.786651 -17.152881 -3.907322 -40.008805 -26.486407 7.549416 104.967975 -75.398441 -78.399497 26.855615 -12.771044 -15.101696 15.346245 22.111038 -0.623179 41.766153 34.356845 9.078414 -77.299734 66.609616 -40.138731 -19.396972 11.195977 28.858981 
-0.079442 0.231814 1.006774 90.053987 -1.327212 81.488267 3.101955 1.800688 3.898451 -3.612696 1.312688 11.071982 -0.249215 8.440226 -5.894376 0.000000 -0.000000 0.000000 -3.481219 -4.707775 -0.472835 -0.906946 -3.369755 15.974351 4.048257 -4.583856 -7.580455 0.000000 -0.000000 0.000000 1.081306 1.980373 12.880102 -0.158056 -2.460584 6.308295 -2.077724 1.959326 0.131622 -0.033926 3.167632 2.927474 0.888628 -3.485684 12.169520 -14.969211 -17.526772 -2.872685 -40.940157 -25.382280 8.121136 87.185938 -75.913821 -63.010669 23.910532 -11.143897 -17.687615 16.635268 22.313070 0.607525 42.706791 33.362056 9.658658 -63.602847 64.928802 -29.405674 -15.260430 8.178616 26.699990 
-0.082773 0.231558 1.005379 90.180357 -1.354026 81.399863 3.142749 1.733922 3.218345 -3.849019 1.046503 12.130626 -0.088309 8.822089 -6.285035 0.000000 -0.000000 0.000000 -3.454426 -4.692837 -1.256249 -0.862338 -3.098204 17.204160 3.808898 -5.025765 -8.035464 0.000000 -0.000000 0.000000 0.949764 1.929568 13.549827 -0.205732 -2.512612 6.968810 -1.954485 2.024476 0.169880 -0.131361 2.955996 2.725728 1.162694 -3.514103 11.849169 -15.503241 -17.995998 -2.072968 -40.808689 -23.903250 8.501890 81.959283 -75.933899 -58.442584 24.795831 -10.473986 -19.171488 17.316603 22.848791 1.674973 43.030316 31.879860 10.142099 -57.831031 63.847626 -24.832160 -15.787340 7.356350 25.266023 
-0.085783 0.231519 1.004011 90.234019 -1.381579 81.661630 3.221161 1.873227 2.398700 -4.030049 0.923273 12.798251 0.038767 8.895952 -6.453217 0.000000 -0.000000 0.000000 -3.410477 -4.479541 -2.304158 -0.850094 -3.098464 18.312891 3.739148 -5.306525 -8.385474 0.000000 -0.000000 0.000000 0.732846 1.865301 14.230740 -0.173811 -2.530202 7.174326 -1.891877 2.046591 0.014130 0.000645 3.027024 2.615704 1.222562 -3.862517 11.452860 -15.631924 -17.960234 -1.578238 -40.456631 -22.894757 8.590576 83.726736 -76.609036 -59.289995 25.619403 -11.396763 -17.986657 17.723602 22.971696 2.313474 43.560288 30.683570 10.656905 -57.866019 64.143965 -24.469824 -17.135067 8.340303 25.707628 
-0.088074 0.231977 1.003236 90.431125 -1.441543 81.960456 3.136264 1.680804 1.720331 -4.078197 0.913963 13.151719 0.086618 8.972040 -6.482484 0.000000 -0.000000 0.000000 -3.411502 -4.441842 -3.007030 -0.906757 -3.099488 18.817819 3.686776 -5.507134 -8.491949 0.000000 -0.000000 0.000000 0.678068 1.866871 14.678955 -0.163509 -2.550190 7.009995 -1.887690 1.952539 0.173796 0.041702 2.968752 2.660441 1.164066 -4.112145 11.592455 -15.487142 -17.673455 -1.602389 -40.377517 -22.787328 8.744671 85.205112 -77.256286 -60.413087 26.021039 -11.739325 -17.969166 17.356086 22.718272 2.079914 43.884105 30.133656 11.348792 -58.314127 64.996210 -24.183256 -17.732631 8.657086 25.842954 
